<svg xmlns="http://www.w3.org/2000/svg" viewBox="0 0 1753.66 1806.23">
    <defs>
        <style>
            .cls-1 {
                fill: #232324;
            }
        </style>
    </defs>
    <g id="Layer_2" data-name="Layer 2">
        <g id="Layer_1-2" data-name="Layer 1">
            <path class="cls-1"
                d="M304,1403.41l192.34,191.14c24.78-41,48.26-76.91,68.6-114.58,22.75-42.26,42.77-86,63.08-129.38,6.53-14,13.27-28.48,16.79-43.34a142.77,142.77,0,0,1-14.14-13.13l17.8-61.14,18.3-63.22.07-.21c8-24.9,16.5-49.66,24.47-74.56-2.15-2-4.38-4-6.6-6-32.08,32.08-65.3,63.15-96.59,96-17.65,18.65-15.14,17.43-24.11,11.33-8.25-5.52-24.47-15.71-24.47-15.71S511,1213.54,498,1230.54c-16.14,21-33.51,41.69-53.53,58.84C399.42,1328,352.41,1364.28,304,1403.41Z" />
            <path class="cls-1"
                d="M327.61,1314.57c50.73-58.34,100.74-117.25,153.42-178.68-48.73-45-31.72-33.87,18.65-78.21,92.5-81.45,196.76-148.26,293.85-224.1,28.13-22,51.24-50.24,86.69-85.68-27.27,1.86-39.54.07-49.66,3.87C784.85,768.92,741,792.67,694,804.37c-35,8.68-76.71,16.58-98.53,38.39,0,0,3.23,19.3-3.44,34.45-5.17,11.48-34.73,34.29-54.4,34-17.79-.29-52.09-26.55-55.82-41.05s2.79-35.8,28.41-55.83c17.94-14.06,37.24-18.29,69.54-28.77,25.76-8.4,82-47.15,121.55-68.46A115.93,115.93,0,0,1,742.44,704c26.77-19.16,49.66-32.43,73.48-37.89,47.29-10.69,57.84-21.81,64.15-27.12,14.86-12.7,57.55-21.53,93.58,25.69,26.26,10.33,30.64,6.1,30.64,6.1s38.1-5.24,46.07-31.58,11.62-62.86,50.23-86.68,103.54-13.71,126,41c15.43,37.68-24.11,77.07-47,91.93-21.74,14.28-34.08,36.95-72.33,29.56s-19.8,38.89-19.8,38.89c1.79,15.72,23.25,24.69,42.41,44.57,27.91,28.91,22.13,64.23.1,92.71-17.08,22.11-8.66,40.72-26.21,73-28,51.51-10.53,59.67-97.18,195.51-17.72,27.78-15.35,67.88-28.84,95.44-7.32,18.22-36.31,42.48-51.24,41.47-16.86-1.22-56.19-35.09-58.34-52.31-2.29-18.8,11.34-46.5,27.34-62.5,27.41-27.41,37.89,19.23,74-63.51,9.51-21.81,13-49.35,20-71.66,10.17-32.57,13.94-63.45,28.09-95.47,8.89-20.12,7.3-28,6.15-43.12-157.94,107.14-199.41,283.66-260.19,440.88a156.46,156.46,0,0,1-45.78-4.3q-90,151.58-175.58,295.49l167.15,166.1c13.2-17.94,24.61-32.36,34.95-47.58Q1029.84,1340.48,1315,922.1c144.45-211.91,289.48-423.52,432.78-636.29,7.39-11,8.11-37.67.21-46C1671.11,159.45,1591.67,81.3,1510.37,0,1004.4,368.91,504.17,733.66,0,1101.35L238.09,1338C266.78,1355.55,300.47,1345.67,327.61,1314.57Z" />
        </g>
    </g>
</svg>