<svg xmlns="http://www.w3.org/2000/svg" viewBox="0 0 881.37 373.21"><defs><style>.cls-1{fill:#af0000;}</style></defs><g id="Layer_2" data-name="Layer 2"><g id="Layer_1-2" data-name="Layer 1"><path class="cls-1" d="M723.52,99.62c20,8.13,23.8,23.82,23.85,41.43.08,25,0,50,0,74.94a9.7,9.7,0,0,1-.49,2H699.35c0-2.42,0-4.74,0-7.07q.21-31.81.43-63.63c0-1.78.08-3.57,0-5.35-.79-13.09-5.09-17.56-19.14-19.35v95.3H630.43V2.48c.41-.24.74-.6,1.07-.59,25.35.21,50.76-.47,76,1,22.91,1.31,33.35,12.16,36.1,35,1.26,10.38,1.12,21,1.06,31.44C744.63,83.36,740.92,95.43,723.52,99.62ZM679.65,34.48V87.55c13.17.48,16.56-2.82,15.88-13.93-.6-9.65-.36-19.37,0-29,.2-5.76-2.74-8.36-7.71-9.39A69,69,0,0,0,679.65,34.48Z"/><path class="cls-1" d="M357.51,218.29V1.69c3.76,0,7.27,0,10.79,0,19,.05,38.07-.31,57.08.26,24.54.73,39,12.79,42.73,36.91,1.82,11.77,1.58,24.12.37,36-1.47,14.6-9.3,24.7-27,25.75,3.3,1,4.9,1.7,6.56,2.07,11.2,2.54,18.36,9.65,20.78,20.53,5.06,22.74,5.06,45.67-1,68.22-4.37,16.34-18.08,22.35-32.86,24.14-17.24,2.09-34.74,2-52.14,2.66C374.54,218.54,366.24,218.29,357.51,218.29ZM404.59,181c13.15,1.47,18.19-2.14,18.74-14.85.47-10.83-.18-21.72-.66-32.56-.44-10-7.21-15.57-18.08-15Zm-.94-98.55c12.16,2.05,18.21-2.27,18.74-13.75A125.94,125.94,0,0,0,421.67,48c-1.28-10.61-6.92-14.72-18-13.92Z"/><path class="cls-1" d="M609.53,109.84c0,19.82.36,39.65-.12,59.45-.33,13.81-4.37,26.47-14.82,36.44a41.87,41.87,0,0,1-22,11.05c-16.37,2.9-32.76,2.84-48.84-1.94-20.23-6-32.7-20.5-33.06-41.55-.7-41.39-1.09-82.83.12-124.2.92-31.16,21-48.73,52.19-48.5a154.21,154.21,0,0,1,26.58,2.08c25,4.61,39.09,21,39.8,46.53C610,69.4,609.53,89.63,609.53,109.84Zm-48.77.75h.55c0-15.07.24-30.14-.11-45.2a162.89,162.89,0,0,0-2.33-21.78c-.69-4.32-3.17-8-8.06-8.28-5.34-.27-8.58,3.2-9.72,8-1.36,5.74-2.68,11.66-2.73,17.52q-.36,50.25,0,100.52a50.9,50.9,0,0,0,3.21,17.37c1,2.76,5.27,5.75,8.22,5.92,2.59.14,6.52-2.93,7.85-5.59a31.38,31.38,0,0,0,2.94-13.18C560.93,147.46,560.76,129,560.76,110.59Z"/><path class="cls-1" d="M880.55,72.55H833.83c-1-9.78-1.75-19.21-2.84-28.6-.52-4.49-1.87-8.91-7.56-9s-8.51,3.74-9.24,9a121.21,121.21,0,0,0-1.6,16.53q0,52.94.38,105.89a39.73,39.73,0,0,0,2.53,13.89c1,2.59,4.59,6,6.77,5.85,2.77-.21,6.68-3.19,7.62-5.85a59.49,59.49,0,0,0,2.86-16.88c.43-9.27.12-18.57.12-27.71-.51-.4-.78-.81-1.11-.85-8.64-1.08-8.64-1.07-8.64-10.07V99.76h57.76c0,5.78.07,11.27,0,16.77-.29,18.63.32,37.33-1.17,55.86-2.17,27.13-20,43.79-47.33,45.8-14.32,1.05-28.59.65-41.89-5.88-14.65-7.19-24.38-18.93-24.7-35.18-.84-42.19-.94-84.43,0-126.61.35-16.45,7.13-31.24,21.83-40.93,24.3-16,65.21-11.34,81.9,9.29,7.42,9.18,10.48,19.89,11,31.4C880.81,57.56,880.55,64.86,880.55,72.55Z"/><path class="cls-1" d="M243,218H197.09c-.73-5.3-1.43-10.34-2.18-15.76h-22.1c-.8,4.94-1.65,10.12-2.55,15.69H125.54q17-108.22,33.85-216h42.75C215.74,73.74,229.33,145.56,243,218Zm-67-52.35h15.08c-2.42-27.43-4.8-54.5-7.19-81.57l-1.19.1C180.49,111.12,178.28,138.09,176,165.62Z"/><path class="cls-1" d="M82,217.81a.38.38,0,0,1,0,.1H50.15c.78-7.27,1.67-14.19,2.2-21.14a44.85,44.85,0,0,0-.44-9.32c-.33-2.48-.7-7.58-.7-7.58s2.19-.5,3.33-.72,1.15.07,1.06-2.94c-.13-5.32,0-10.65,0-16l1.05-.05c1.4,2.72,2.75,5.48,4.15,8.21v0c1.16,2.25,2.35,4.48,3.64,6.64a.54.54,0,0,0,.09.12l3.59,6.55a16.62,16.62,0,0,0,2.26-.08,27.14,27.14,0,0,1,2.21,5c1.91,5.29,3.88,10.57,5.49,16C79.58,207.41,80.62,212.35,82,217.81Z"/><path class="cls-1" d="M258.88,2.21h47.63v182h36.58V218H258.88Z"/><path class="cls-1" d="M102,372.51H72.89V311l-1.3-.14-7.11,34.67c-1.52,7.36-3.42,14.67-4.45,22.1-.62,4.47-2.56,5.61-6.62,5.23-3.13-.29-6.31-.06-10.16-.06C39.47,352.1,35.73,331.58,32,311.07l-.88,0c-.84,20.28-1.67,40.55-2.52,61.27H.05C2.52,327.59,5,283,7.48,237.36c9,0,18.05-.14,27.06.2,1,0,2.39,2.71,2.79,4.35,4.35,17.68,8.52,35.4,12.76,53.1.45,1.9,1,3.77,1.86,7.08,5.62-20,11.12-38.57,15.92-57.31,1.5-5.82,3.67-8.17,9.89-7.6,7.06.65,14.23.15,22.07.15C100.56,282.51,101.29,327.34,102,372.51Z"/><path class="cls-1" d="M251.45,299c11.43,4.78,13.73,14.39,13.81,25,.12,16,0,32,0,48.4H235.2c0-10.32,0-20.38,0-30.43,0-6.14.22-12.3-.13-18.43-.41-7.19-3.53-9.73-11.8-9.87v58.82H192.17V236.74c17.76.65,35.56.43,53.14,2.27,11.12,1.16,16.38,8.65,17.63,20.83a138.2,138.2,0,0,1,.42,20.75C262.81,291.81,261.51,293.49,251.45,299ZM222.86,291c8.86,0,10-1.11,10-9.34,0-4.74,0-9.48,0-14.22,0-8-1.52-9.38-10-8.77Z"/><path class="cls-1" d="M717.88,298.66c12,5.68,14.47,15.16,14.31,26.2-.23,15.64-.06,31.3-.06,47.45H702.5c-.11-2-.32-4.1-.32-6.18,0-13.68.22-27.37.14-41.05-.05-7.86-3.2-10.93-11.72-11.57v58.92H659.41V237.89a23.69,23.69,0,0,1,3.65-.53c13.48,0,27-.27,40.45.25,17.78.7,24.52,6.92,26.7,24.53a122,122,0,0,1,.25,20.77C730.1,290.32,727,296.22,717.88,298.66Zm-28-7.64c9-.27,9.85-1.1,9.92-9.09,0-4.74,0-9.49,0-14.24,0-8.54-.69-9.2-9.92-9.29Z"/><path class="cls-1" d="M850.84,275.28c-.29-4.18-.1-8-1-11.59-.53-2.16-2.71-3.9-4.15-5.83-1.77,1.88-5.14,3.86-5,5.63.35,5.72.73,12.07,3.41,16.88,3.39,6.07,9.22,10.73,13.72,16.23,6.85,8.4,14.72,16.3,19.89,25.66,8,14.41,2.16,36.28-10.11,44.52-14.66,9.85-36.52,8.23-47.66-3.78-7.94-8.55-9.38-19.22-9.38-30.71h29.87c0,3.44-.71,6.95.21,10,.87,2.85,3.45,5.17,5.27,7.73,1.64-2.67,4.59-5.34,4.58-8a19.14,19.14,0,0,0-3.66-11c-5.91-7.67-12.55-14.77-19-22-7.66-8.6-15.47-17.06-17.78-29-2.73-14.06,3-31.58,13.17-37.89,14.36-8.93,29.42-7.94,43.47,0,12.44,7,13.22,20,13.57,33.12Z"/><path class="cls-1" d="M597.71,237.51h26.85C633,282.27,641.5,327,650.15,372.78c-9.17,0-17.79.1-26.4-.14-1,0-2.39-1.75-2.8-3-.69-2-.73-4.25-1.1-6.79H606.49c-.55,3-1.14,6.24-1.76,9.61H576.57Zm15.45,53.27-.91-.14q-2,24.38-4,48.83h9.18C616,323,614.59,306.86,613.16,290.78Z"/><path class="cls-1" d="M458.71,372.56h-28.6c-.62-3.27-1.2-6.34-1.84-9.74H415.05c-.56,3.23-1.12,6.44-1.7,9.73H385.19c7.07-45.2,14.07-90,21.1-134.93h26.88C441.65,282.43,450.12,327.19,458.71,372.56Zm-32.56-32.9c-1.47-16.19-2.89-31.68-4.3-47.18l-1.18.12c-1.24,15.62-2.49,31.24-3.75,47.06Z"/><path class="cls-1" d="M183,372.51H154.73c-2.95-11.23-3.1-11.33-15.52-9.4-.44,2.94-.91,6-1.41,9.36H109.52l21.12-134.76h26.91C166,282.32,174.45,327.09,183,372.51Zm-36.87-81.64-.9,0q-2,24.23-4,48.56h9.16C149,322.89,147.57,306.88,146.17,290.87Z"/><path class="cls-1" d="M319.89,372.54h-29.3V260.2h-18V237.69h65.06v22.15H319.89Z"/><path class="cls-1" d="M804.56,237.7v22H787V372.37H757.66V260.29h-18V237.7Z"/><path class="cls-1" d="M496.86,351.62h22.87v20.84H467.1V237.89h29.76Z"/><path class="cls-1" d="M347.88,237.57h28.66v134.8H347.88Z"/><line class="cls-1" x1="89.58" y1="217.78" x2="89.54" y2="217.78"/><line class="cls-1" x1="81.96" y1="217.81" x2="64.65" y2="217.91"/><path class="cls-1" d="M50.26,218.11l31.8-.1c-1.34-5.45-2.38-10.38-3.82-15.19-1.61-5.39-3.58-10.68-5.49-16a27.54,27.54,0,0,0-2.21-5,18,18,0,0,1-2.26.09l-3.59-6.55L61,168.65v0c-1.4-2.73-2.75-5.49-4.15-8.22l-1,.05c0,5.32-.18,10.65,0,16,.09,3,.19,2.7-1.06,2.94s-3.33.73-3.33.73.37,5.09.7,7.58a44.82,44.82,0,0,1,.44,9.32C51.92,203.94,51,210.85,50.26,218.11Z"/><path class="cls-1" d="M44.85,208.78c-.63-9-1.37-18.08-2.1-27.54-7.77.31-5.43-.18-4.93-8,.91-14.43,4-28.61,5.78-43,.51-4.16.08-8.42.08-14.3-2.1,2.42-3.27,3.29-3.79,4.44-2.37,5.21-4,10.82-7,15.69-2.17,3.62-5,7.73-5,11.35a8.16,8.16,0,0,1,2.57,3.14c.52,1.38,0,5.73-1.69,7.33s-6.52,2.12-8,1.23-2.73-3.2-2.27-7c.32-2.65,1.57-4.6,3.38-8.15,1.44-2.83,2.89-10.71,4.4-15.76a13.68,13.68,0,0,1,2.33-4.49c.63-3.81,1.42-6.81,2.95-9.24,3-4.81,3-6.6,3.07-7.57.18-2.28,3-6.56,9.89-5.63,3-1.32,3-2,3-2s2.73-3.6,1.21-6.44-4.25-6.18-3-11.36,7.45-9.72,13.86-7C64,76.28,64,82.83,63.33,86s.24,5.89-3.55,8.45,1.59,4.87,1.59,4.87c1.45,1.15,4,.12,7.21.18,4.71.08,7.16,3.49,7.7,7.68.41,3.24,2.66,4.09,3.88,8.22,2,6.6,4.07,5.82,8.15,24.27.84,3.78,4.36,6.91,5.52,10.31.91,2.12.52,6.53-.8,7.69-1.5,1.3-7.57,1.75-9.18.5s-2.92-4.8-2.92-7.45c0-4.55,4.74-1.55.87-11.4-1-2.6-3-5.18-4.28-7.6-1.86-3.55-4.11-6.42-5.59-10.25a8.18,8.18,0,0,0-3.06-4.09c-4.22,22,7,40.06,15,58.14a18.41,18.41,0,0,1-4.15,3.44q5.1,20,9.94,39.06l27.63-.08c-.39-2.59-.64-4.73-1-6.85q-11-58.35-22-116.7C88.59,64.8,83.07,35.22,77.31,5.7c-.3-1.53-2.45-3.8-3.8-3.83-13-.29-26.11-.18-39.59-.18C22.55,74.24,11.32,146,0,218.27l39.36-.13C43.2,217.22,45.18,213.61,44.85,208.78Z"/></g></g></svg>